<svg width="50" height="50" viewBox="0 0 50 50" fill="none" xmlns="http://www.w3.org/2000/svg">
<path d="M45 0C47.7614 6.44256e-07 50 2.23858 50 5V45C50 47.7614 47.7614 50 45 50H5C2.23858 50 4.02673e-08 47.7614 0 45V5C6.44277e-07 2.23858 2.23858 4.0266e-08 5 0H45ZM35.9375 11.7168C35.5403 11.3333 34.9071 11.3442 34.5234 11.7412L24.2881 22.3359L12.5264 13.4727C12.0853 13.1403 11.4583 13.2288 11.126 13.6699L9.92188 15.2666C9.5895 15.7077 9.67807 16.3346 10.1191 16.667L16.3779 21.3838L8.68457 19.8887C8.14248 19.7834 7.61807 20.1376 7.5127 20.6797L7.13086 22.6426C7.02552 23.1847 7.37976 23.7091 7.92188 23.8145L14.8809 25.167L7.97266 26.7627C7.43478 26.887 7.09963 27.424 7.22363 27.9619L7.67383 29.9111C7.79815 30.4492 8.33498 30.7844 8.87305 30.6602L18.3701 28.4668L11.5996 35.4795C11.216 35.8767 11.2269 36.5099 11.624 36.8936L13.0625 38.2832C13.4597 38.6668 14.0929 38.6558 14.4766 38.2588L24.708 27.6611L36.4736 36.5273C36.9147 36.8597 37.5417 36.7712 37.874 36.3301L39.0781 34.7334C39.4105 34.2923 39.3219 33.6654 38.8809 33.333L32.6201 28.6152L40.3154 30.1113C40.8575 30.2166 41.3819 29.8624 41.4873 29.3203L41.8691 27.3574C41.9745 26.8153 41.6202 26.2909 41.0781 26.1855L34.1162 24.832L41.0273 23.2373C41.5652 23.113 41.9004 22.576 41.7764 22.0381L41.3262 20.0889C41.2019 19.5508 40.665 19.2156 40.127 19.3398L30.6289 21.5322L37.4004 14.5205C37.784 14.1233 37.7731 13.4901 37.376 13.1064L35.9375 11.7168ZM23.8135 22.8291L24.2881 22.3359L24.957 22.8398L24.4609 22.9551L25.334 23.124L27.5078 24.7617L25.5264 26.8154L24.5352 27.0439L25.1836 27.1699L25.5264 26.8154L29.1279 25.9834L32.6201 28.6152L25.1836 27.1699L24.708 27.6611L24.04 27.1572L24.5352 27.0439L23.6641 26.874L21.4893 25.2354L23.4727 23.1836L24.4609 22.9551L23.8135 22.8291L23.4727 23.1836L19.8701 24.0146L16.3779 21.3838L23.8135 22.8291ZM23.6641 26.874L24.04 27.1572L18.3701 28.4668L20.501 26.2598L23.6641 26.874ZM21.4893 25.2354L20.501 26.2598L14.8809 25.167L19.8701 24.0146L21.4893 25.2354ZM34.1162 24.832L29.1279 25.9834L27.5078 24.7617L28.4961 23.7393L34.1162 24.832ZM28.4961 23.7393L25.334 23.124L24.957 22.8398L30.6289 21.5322L28.4961 23.7393Z" fill="#424FFF"/>
</svg>
